<svg width="532" height="577" viewBox="0 0 532 577" fill="none" xmlns="http://www.w3.org/2000/svg">
<rect x="11" y="2" width="504" height="504" rx="12" fill="white" stroke="#00B7C9" stroke-width="4"/>
<rect x="413" y="24" width="35" height="120" rx="15" fill="#00B7C9"/>
<rect x="370" y="101" width="35" height="120" rx="15" transform="rotate(-90 370 101)" fill="#00B7C9"/>
<path d="M357.585 254.835C365.24 241.282 384.76 241.282 392.415 254.836L494.116 434.915C501.646 448.247 492.013 464.75 476.702 464.75H273.298C257.987 464.75 248.354 448.247 255.884 434.915L357.585 254.835Z" fill="#00B7C9"/>
<path d="M201.083 160.858C208.736 147.299 228.264 147.299 235.917 160.858L390.889 435.419C398.414 448.752 388.781 465.25 373.472 465.25H63.5281C48.2185 465.25 38.5857 448.752 46.111 435.419L201.083 160.858Z" fill="#00B7C9"/>
</svg>
